<?xml version="1.0" encoding="UTF-8"?> <svg xmlns="http://www.w3.org/2000/svg" width="300" height="300" viewBox="0 0 300 300" fill="none"><path d="M138.595 166.663L138.863 167.363C138.946 167.589 139.072 167.892 139.18 168.211L139.569 169.33C139.721 169.759 139.845 170.191 140.007 170.693C140.162 171.187 140.345 171.74 140.488 172.284L140.989 174.075C141.154 174.699 141.293 175.326 141.46 176.009C142.175 178.956 142.684 181.95 142.981 184.969C143.152 186.576 143.224 188.177 143.26 189.823C143.262 191.437 143.224 193.092 143.073 194.709C142.924 196.316 142.68 197.914 142.341 199.492C142.002 201.041 141.553 202.565 140.999 204.051C139.894 206.997 138.345 209.72 136.333 212.126C135.337 213.341 134.174 214.424 133.021 215.545C131.852 216.65 130.656 217.755 129.407 218.827C126.882 221.018 124.244 223.075 121.503 224.99C118.736 226.937 115.825 228.739 112.839 230.394C111.343 231.214 109.827 231.997 108.293 232.743C106.763 233.478 105.216 234.174 103.653 234.833C100.534 236.134 97.392 237.264 94.2767 238.199C91.2692 239.107 88.2187 239.867 85.1364 240.475C79.2415 241.65 73.831 242.132 69.8095 242.235L68.3716 242.26L67.0804 242.259L64.9899 242.203L63.6498 242.125L63.1763 242.084L63.1354 241.61L63.0569 240.27L63.0012 238.18L63 236.889L63.0248 235.451C63.1278 231.429 63.6094 226.019 64.7852 220.124C65.3933 217.042 66.1527 213.991 67.0608 210.983C67.9962 207.868 69.1256 204.726 70.4265 201.608C71.0854 200.044 71.7823 198.497 72.5166 196.967C73.2617 195.439 74.0429 193.918 74.8662 192.422C76.5204 189.436 78.3233 186.525 80.2695 183.757C82.1844 181.016 84.2418 178.378 86.4332 175.853C87.5045 174.604 88.6094 173.408 89.7148 172.239C90.8361 171.086 91.919 169.923 93.1333 168.927C95.5403 166.915 98.2626 165.366 101.209 164.261C102.695 163.707 104.218 163.259 105.768 162.919C107.346 162.58 108.943 162.336 110.551 162.188C112.168 162.037 113.823 161.998 115.436 162C117.083 162.035 118.684 162.108 120.291 162.279C123.31 162.576 126.304 163.085 129.251 163.801C129.934 163.967 130.56 164.106 131.185 164.271L132.976 164.772C133.52 164.916 134.073 165.099 134.567 165.253C135.069 165.415 135.501 165.539 135.929 165.692L137.049 166.081C137.368 166.188 137.671 166.314 137.896 166.397C138.357 166.572 138.595 166.663 138.595 166.663Z" fill="#8FC7E8"></path><path d="M127.733 176.266L127.863 176.606C127.904 176.716 127.965 176.863 128.017 177.018L128.206 177.562C128.28 177.77 128.34 177.98 128.419 178.224C128.494 178.464 128.583 178.733 128.653 178.997L128.896 179.868C128.977 180.171 129.044 180.475 129.125 180.807C129.473 182.239 129.72 183.694 129.864 185.161C129.947 185.942 129.983 186.72 130 187.52C130.001 188.304 129.982 189.108 129.909 189.894C129.837 190.675 129.718 191.451 129.554 192.218C129.388 192.971 129.17 193.711 128.901 194.433C128.364 195.865 127.612 197.188 126.634 198.357C126.15 198.947 125.585 199.474 125.025 200.019C124.457 200.555 123.875 201.093 123.269 201.613C122.042 202.678 120.76 203.678 119.428 204.608C118.083 205.554 116.668 206.43 115.218 207.234C114.491 207.632 113.754 208.013 113.009 208.376C112.265 208.732 111.514 209.071 110.754 209.391C109.239 210.023 107.712 210.572 106.198 211.027C104.737 211.468 103.254 211.837 101.756 212.133C98.8921 212.704 96.263 212.938 94.3089 212.988L93.6102 213L92.9828 212.999L91.9669 212.972L91.3158 212.934L91.0857 212.914L91.0658 212.684L91.0276 212.033L91.0006 211.017L91 210.39L91.0121 209.691C91.0621 207.737 91.2961 205.108 91.8675 202.243C92.1629 200.746 92.532 199.263 92.9732 197.802C93.4278 196.288 93.9766 194.761 94.6087 193.246C94.9288 192.486 95.2675 191.735 95.6243 190.991C95.9864 190.248 96.366 189.51 96.766 188.782C97.5698 187.332 98.4459 185.917 99.3916 184.572C100.322 183.24 101.322 181.958 102.387 180.731C102.907 180.125 103.444 179.543 103.981 178.975C104.526 178.415 105.052 177.85 105.642 177.366C106.812 176.388 108.135 175.636 109.566 175.099C110.289 174.83 111.029 174.612 111.782 174.446C112.549 174.282 113.325 174.163 114.106 174.091C114.892 174.018 115.696 173.999 116.48 174C117.28 174.017 118.058 174.053 118.839 174.136C120.306 174.28 121.76 174.527 123.193 174.875C123.524 174.956 123.829 175.023 124.132 175.104L125.002 175.347C125.267 175.417 125.536 175.506 125.776 175.581C126.02 175.659 126.23 175.72 126.438 175.794L126.982 175.983C127.137 176.035 127.284 176.096 127.394 176.137C127.617 176.221 127.733 176.266 127.733 176.266Z" fill="white"></path><path d="M78.9912 119.813L49.9399 148.865C47.932 150.873 49.3542 154.306 52.1939 154.306H76.6102C77.4556 154.306 78.2664 154.642 78.8642 155.24L94.7179 171.093L120.467 118.88H81.2451C80.8265 118.88 80.412 118.962 80.0252 119.122C79.6385 119.283 79.2871 119.517 78.9912 119.813Z" fill="#009F4D"></path><path d="M134.799 204.282L150.653 220.136C151.251 220.734 151.586 221.544 151.586 222.39V246.806C151.586 249.646 155.02 251.068 157.028 249.06L186.079 220.009C186.677 219.411 187.012 218.6 187.012 217.755V178.533L134.799 204.282Z" fill="#009F4D"></path><path d="M250.807 54.4148L250.776 54.1596C250.555 52.3307 249.113 50.8167 247.202 50.5864L246.947 50.5555C246.904 50.5506 246.856 50.5446 246.801 50.5379C246.643 50.5183 246.439 50.4931 246.201 50.4734C246.017 50.4584 245.804 50.4377 245.565 50.4146C244.976 50.3577 244.231 50.2856 243.383 50.2454C240.934 50.0639 237.486 49.9425 233.337 50.0279C229.186 50.1108 224.338 50.4033 219.074 51.0371C217.993 51.1518 216.921 51.3068 215.823 51.4656C215.567 51.5026 215.31 51.5398 215.051 51.5767C214.068 51.7056 213.101 51.8732 212.115 52.0441C211.712 52.1138 211.307 52.1841 210.896 52.2526C208.072 52.7373 205.199 53.3423 202.269 54.0406C196.187 55.4954 190.205 57.3428 184.362 59.5713C178.344 61.8701 172.333 64.6288 166.494 67.8623C160.659 71.1006 154.969 74.7848 149.559 78.9016C144.145 83.0133 139.007 87.5528 134.2 92.4233C129.393 97.2933 124.911 102.489 120.843 107.947C119.826 109.312 118.827 110.684 117.87 112.089C116.898 113.477 115.969 114.896 115.048 116.31C113.221 119.151 111.511 122.053 109.905 124.984C106.748 130.755 103.988 136.734 101.642 142.879C99.4183 148.719 97.564 154.693 96.09 160.765C95.3853 163.689 94.7651 166.547 94.276 169.365L94.063 170.547L136.85 206.132C138.088 205.864 139.336 205.576 140.597 205.272C146.669 203.797 152.643 201.943 158.483 199.72C164.629 197.374 170.608 194.614 176.379 191.456C179.31 189.852 182.211 188.141 185.053 186.314C186.466 185.393 187.885 184.463 189.274 183.492C190.677 182.535 192.05 181.536 193.415 180.519C198.873 176.451 204.068 171.969 208.939 167.162C213.809 162.355 218.349 157.217 222.461 151.803C226.578 146.393 230.262 140.702 233.5 134.868C236.733 129.029 239.492 123.018 241.791 117C244.019 111.157 245.867 105.175 247.322 99.093C248.02 96.1624 248.625 93.2894 249.11 90.4662C249.178 90.0552 249.248 89.6497 249.318 89.2473C249.489 88.2614 249.657 87.294 249.785 86.3105C249.822 86.055 249.859 85.8014 249.895 85.5491C250.054 84.4475 250.21 83.372 250.325 82.2878C250.959 77.0243 251.251 72.1755 251.334 68.0245C251.42 63.876 251.298 60.4278 251.117 57.9784C251.076 57.1261 251.004 56.3774 250.947 55.7865C250.924 55.5519 250.904 55.3421 250.889 55.1607C250.87 54.9293 250.845 54.7296 250.826 54.5733C250.818 54.514 250.812 54.4609 250.807 54.4148Z" fill="#009ACE"></path><path d="M176 162C155.598 162 139 145.402 139 125C139 104.598 155.598 88 176 88C196.402 88 213 104.598 213 125C213 145.402 196.402 162 176 162Z" fill="white"></path><path d="M180.393 100.331C182.363 100.528 184.159 100.911 185.774 101.467C188.293 102.336 190.603 103.801 192.709 105.86L186.666 111.836C185.156 110.372 183.506 109.445 181.722 109.054C181.273 108.958 180.833 108.873 180.396 108.8C179.095 108.579 177.843 108.471 176.641 108.471C174.428 108.471 172.716 108.923 171.511 109.831C171.318 109.97 171.14 110.125 170.974 110.291C169.761 111.504 169.154 112.956 169.154 114.652C169.154 115.294 169.259 115.912 169.463 116.507C169.672 117.102 170.024 117.65 170.53 118.152C170.823 118.419 171.148 118.663 171.511 118.883C171.773 119.041 172.052 119.188 172.349 119.319C173.06 119.64 173.941 119.872 174.991 120.007L180.829 120.899C183.073 121.22 184.928 121.68 186.392 122.275C187.856 122.87 189.116 123.693 190.17 124.747C191.495 125.937 192.457 127.401 193.052 129.14C193.647 130.882 193.945 132.848 193.945 135.046C193.945 137.426 193.489 139.531 192.573 141.362C191.658 143.193 190.387 144.739 188.76 145.998C187.134 147.258 185.214 148.219 182.992 148.88C182.15 149.131 181.285 149.336 180.396 149.49C180.396 149.491 180.397 149.49 180.396 149.49L180.396 149.553C180.396 151.994 178.399 153.996 175.954 153.996C173.543 153.996 171.561 152.045 171.515 149.646C171.515 149.645 171.515 149.646 171.515 149.646C169.498 149.421 167.624 149.031 165.894 148.471C162.985 147.532 160.342 145.851 157.962 143.421L164.144 137.244C165.701 138.801 167.486 139.875 169.498 140.47C170.159 140.663 170.827 140.825 171.511 140.957C172.917 141.227 174.377 141.362 175.884 141.362C177.657 141.362 179.16 141.165 180.396 140.768C181.173 140.521 181.845 140.192 182.409 139.783C183.873 138.732 184.607 137.221 184.607 135.251C184.607 133.559 184.101 132.207 183.097 131.199C182.591 130.743 182.042 130.399 181.447 130.171C181.169 130.063 180.817 129.962 180.396 129.862C179.921 129.754 179.357 129.65 178.7 129.553L172.863 128.661C172.396 128.591 171.947 128.514 171.511 128.429C169.892 128.124 168.494 127.706 167.3 127.185C165.789 126.52 164.488 125.663 163.387 124.608C161.053 122.367 159.887 119.161 159.887 114.996C159.887 112.798 160.273 110.793 161.053 108.985C161.83 107.177 162.954 105.62 164.418 104.314C165.882 103.013 167.667 101.993 169.773 101.262C170.333 101.066 170.912 100.899 171.511 100.757V100.49C171.511 98.0448 173.512 96.0475 175.954 96.0475C177.174 96.0475 178.287 96.5459 179.09 97.3532C179.863 98.122 180.354 99.1725 180.393 100.331Z" fill="#009F4D"></path></svg> 